PathFileType	4	(X/Y/Z)	C:/Users/opensim2020/Desktop/walking_exp_matlab/subject06_walking19_straight_01.trc																																																																																																																																																	
DataRate	CameraRate	NumFrames	NumMarkers	Units	OrigDataRate	OrigDataStartFrame	OrigNumFrames																																																																																																																																													
100	100	7	49	mm	100	1215	472																																																																																																																																													
Frame#	Time	LFHD			RFHD			LBHD			RBHD			C7			T10			CLAV			STRN			RBAK			LSHO			LUPA			LELB			LFRM			LWRA			LWRB			LFIN			RSHO			RUPA			RELB			RFRM			RWRA			RWRB			RFIN			LASI			RASI			LPSI			RPSI			LTHI			LKNE			LTIB			LANK			LHEE			LTOE			RTHI			RKNE			RTIB			RANK			RHEE			RTOE			*39			*40			*41			*42			*43			*44			*45			*46			*47			*48		
		X1	Y1	Z1	X2	Y2	Z2	X3	Y3	Z3	X4	Y4	Z4	X5	Y5	Z5	X6	Y6	Z6	X7	Y7	Z7	X8	Y8	Z8	X9	Y9	Z9	X10	Y10	Z10	X11	Y11	Z11	X12	Y12	Z12	X13	Y13	Z13	X14	Y14	Z14	X15	Y15	Z15	X16	Y16	Z16	X17	Y17	Z17	X18	Y18	Z18	X19	Y19	Z19	X20	Y20	Z20	X21	Y21	Z21	X22	Y22	Z22	X23	Y23	Z23	X24	Y24	Z24	X25	Y25	Z25	X26	Y26	Z26	X27	Y27	Z27	X28	Y28	Z28	X29	Y29	Z29	X30	Y30	Z30	X31	Y31	Z31	X32	Y32	Z32	X33	Y33	Z33	X34	Y34	Z34	X35	Y35	Z35	X36	Y36	Z36	X37	Y37	Z37	X38	Y38	Z38	X39	Y39	Z39	X40	Y40	Z40	X41	Y41	Z41	X42	Y42	Z42	X43	Y43	Z43	X44	Y44	Z44	X45	Y45	Z45	X46	Y46	Z46	X47	Y47	Z47	X48	Y48	Z48	X49	Y49	Z49
																																																																																																																																																				
355	3.54	682.96106	1657.28711	1327.6366	681.91327	1646.61829	1458.92139	551.46381	1598.73926	1325.77637	550.96558	1592.8783	1455.07739	550.96198	1446.78064	1380.43958	509.61444	1118.66919	1387.43408	657.4718	1365.80444	1385.24402	692.06525	1188.69092	1378.84131	469.93057	1277.73535	1455.23975	611.29523	1398.9856	1221.91223	625.99231	1195.87463	1151.90259	637.84918	1082.78162	1143.5874	709.7641	949.15692	1145.31128	796.70209	870.28009	1212.38501	750.30499	839.74658	1168.71533	815.76978	779.60767	1186.9425	607.61566	1398.29663	1544.08374	557.65942	1201.61511	1629.64783	560.61536	1079.37415	1641.24036	572.74719	959.60126	1657.76111	629.43488	818.90002	1625.38037	576.22937	821.87311	1665.51318	611.72931	745.53741	1668.24573	678.25275	948.37231	1280.69836	681.71246	962.76141	1502.78503	522.2077	985.9801	1312.10132	530.17261	989.66199	1480.31458	560.50403	642.98553	1243.21069	523.51489	483.01938	1268.92004	426.397	243.77403	1291.2876	388.35434	77.28857	1347.54712	347.42447	70.16914	1395.11353	528.93915	37.93129	1345.24426	682.67584	639.83075	1568.42493	719.32898	522.48187	1538.42432	751.59637	260.65305	1548.65356	801.00342	79.31561	1510.76331	771.45685	46.91791	1464.56372	959.39984	76.12668	1507.94922	580.09235	1692.28748	1384.89343	NaN	NaN	NaN	NaN	NaN	NaN	NaN	NaN	NaN	NaN	NaN	NaN	NaN	NaN	NaN	NaN	NaN	NaN	NaN	NaN	NaN	NaN	NaN	NaN	NaN	NaN	NaN
356	3.55	689.14746	1657.04419	1329.16833	687.914	1645.88574	1460.245	557.7453	1598.37366	1327.38428	557.31018	1592.14441	1456.72644	557.54651	1446.23303	1381.6676	516.26666	1118.2937	1388.41907	663.94733	1365.47424	1386.19727	698.58948	1188.31787	1379.37305	476.60284	1277.15027	1456.19775	617.5368	1398.84949	1223.03223	632.12988	1195.75952	1153.03381	643.4231	1082.58179	1144.99133	715.51617	948.8623	1146.58179	802.17529	870.03967	1214.11462	755.72534	839.40533	1170.4502	821.12738	779.24164	1188.94324	614.22217	1397.59155	1545.13574	564.15375	1200.87292	1630.4397	567.11853	1078.63745	1641.93591	579.08429	958.8291	1658.35974	635.67255	818.11035	1625.8999	582.42755	821.11786	1666.02893	618.42004	744.94592	1669.14819	684.4696	948.01636	1280.8446	689.13593	962.25745	1502.90808	528.55054	985.57343	1313.03528	537.50964	989.1676	1481.19629	565.35907	642.97852	1243.3335	527.59155	483.16907	1269.11194	428.2897	244.75693	1291.39514	388.77228	78.40054	1347.448	348.01151	71.52692	1394.87292	529.01447	37.90014	1345.09155	689.16699	638.88989	1569.14233	725.6167	521.67554	1538.79883	757.3288	259.823	1548.91675	806.43768	78.23655	1510.89905	776.6756	45.90831	1464.81335	964.64001	74.74877	1507.10742	586.39282	1691.80151	1386.72961	NaN	NaN	NaN	NaN	NaN	NaN	NaN	NaN	NaN	NaN	NaN	NaN	NaN	NaN	NaN	NaN	NaN	NaN	NaN	NaN	NaN	NaN	NaN	NaN	NaN	NaN	NaN
357	3.56	695.48883	1656.85083	1330.87756	694.42145	1645.29492	1461.91382	564.1084	1598.14148	1329.0675	563.81238	1591.55078	1458.30554	563.84296	1445.83887	1382.96875	523.04138	1117.84546	1389.58704	670.50403	1365.05212	1387.17432	705.30652	1188.01318	1379.93945	483.40228	1276.57349	1457.34888	623.70184	1398.75122	1224.25439	638.24207	1195.71643	1154.16516	649.18536	1082.43579	1146.33862	720.77203	948.70831	1148.44141	807.67657	869.81818	1215.74207	761.27747	839.27893	1172.07849	826.47742	778.90063	1190.87354	620.93921	1396.9679	1546.30188	570.82214	1200.19373	1631.35767	573.74536	1077.8905	1642.63477	585.59088	958.09564	1658.99646	642.04028	817.33142	1626.44324	588.81476	820.38544	1666.59192	624.28339	744.06256	1669.27954	690.71857	947.64502	1280.92993	696.73883	961.74878	1503.10645	535.09326	985.23468	1314.06921	545.06464	988.78992	1482.13025	570.19202	643.01007	1243.44519	531.98364	483.24716	1269.29993	430.26718	245.72256	1291.41809	389.2276	79.6069	1347.3811	348.60654	73.04259	1394.90723	529.11945	37.87627	1344.89673	695.59149	637.92242	1569.77515	731.89606	520.83813	1539.25513	763.16748	258.99121	1549.49683	811.23749	77.13292	1511.27808	781.19818	45.14495	1465.98096	969.60754	72.82953	1506.24194	592.73016	1691.36975	1388.6908	NaN	NaN	NaN	NaN	NaN	NaN	NaN	NaN	NaN	NaN	NaN	NaN	NaN	NaN	NaN	NaN	NaN	NaN	NaN	NaN	NaN	NaN	NaN	NaN	NaN	NaN	NaN
358	3.57	701.81372	1656.62317	1332.6781	700.94891	1644.74988	1463.62378	570.36279	1598.00867	1330.8645	570.35333	1591.03186	1460.05273	570.31561	1445.33484	1384.52417	530.02753	1117.39587	1390.79456	677.08295	1364.69788	1388.16663	712.13452	1187.73694	1380.53638	490.31668	1275.8822	1458.61804	629.7395	1398.67224	1225.46777	644.34045	1195.64026	1155.5647	655.28845	1082.38123	1147.5282	727.02441	948.53705	1149.35632	813.29089	869.64032	1217.30371	766.89508	839.04938	1173.6239	831.86694	778.59821	1192.67798	627.74774	1396.35376	1547.49304	577.54865	1199.51416	1632.31653	580.39709	1077.25012	1643.5575	592.17206	957.41406	1659.70471	648.4859	816.57562	1626.94678	595.29645	819.66736	1667.11475	630.99658	743.41052	1670.00867	697.13434	947.25549	1281.18591	704.50281	961.2124	1503.29089	541.87988	984.9455	1315.14905	552.71814	988.46808	1483.18396	575.17999	642.96588	1243.69519	536.57819	483.31491	1269.42651	432.38397	246.75569	1291.48523	389.81442	80.86929	1347.25439	349.25748	74.75996	1394.87158	529.22369	37.86515	1344.6925	702.22797	637.04437	1570.49915	738.07916	520.01215	1539.68042	768.36017	257.99533	1549.93115	815.38544	75.8394	1511.61853	784.21326	45.13258	1466.87805	973.87756	70.4034	1505.43079	599.19244	1690.99023	1390.65381	NaN	NaN	NaN	NaN	NaN	NaN	NaN	NaN	NaN	NaN	NaN	NaN	NaN	NaN	NaN	NaN	NaN	NaN	NaN	NaN	NaN	NaN	NaN	NaN	NaN	NaN	NaN
359	3.58	708.27631	1656.48706	1334.47046	707.56427	1644.22083	1465.41687	576.8396	1597.86877	1332.62476	576.73358	1590.49048	1461.823	576.85022	1444.89563	1386.04309	537.1181	1116.87476	1392.1604	683.76404	1364.43445	1389.30823	719.11798	1187.54041	1381.20935	497.3324	1275.14563	1460.04834	635.78564	1398.60535	1226.76904	650.42755	1195.672	1156.63977	661.10107	1082.3147	1148.88416	732.36359	948.38324	1150.96143	818.97913	869.53381	1218.81445	772.48877	838.88153	1175.14063	837.24939	778.31836	1194.36877	634.64905	1395.75647	1548.76746	584.39746	1198.84802	1633.36646	587.17554	1076.58081	1644.47717	598.88141	956.71143	1660.45447	655.04089	815.83624	1627.46863	602.00378	819.03638	1667.83081	637.64545	742.72803	1670.59082	703.66669	946.88971	1281.4646	712.43011	960.65674	1503.54846	548.67804	984.67889	1316.36902	560.66626	988.11804	1484.33984	580.29633	642.93591	1244.00159	541.37842	483.35822	1269.71545	434.69632	247.82632	1291.61218	390.41434	82.26308	1347.16089	349.80988	76.3895	1394.65686	529.34021	37.80652	1344.53979	708.61346	636.11353	1570.7887	744.29016	519.17896	1540.01135	773.08813	256.92636	1550.18762	818.77997	74.43923	1511.7666	786.64197	44.66611	1467.0603	976.77911	65.8433	1504.28516	605.75415	1690.73547	1392.67529	NaN	NaN	NaN	NaN	NaN	NaN	NaN	NaN	NaN	NaN	NaN	NaN	NaN	NaN	NaN	NaN	NaN	NaN	NaN	NaN	NaN	NaN	NaN	NaN	NaN	NaN	NaN
360	3.59	714.85919	1656.44275	1336.26465	714.65106	1643.90063	1467.578	583.32275	1597.8009	1334.44666	583.4541	1590.08484	1463.58533	583.24335	1444.59045	1387.59644	544.50958	1116.31372	1393.61462	690.55847	1364.2384	1390.46667	726.2381	1187.41406	1381.92578	504.47891	1274.34338	1461.62805	641.82513	1398.61414	1228.10547	656.33777	1195.62646	1157.96765	666.74335	1082.23352	1150.43298	738.24353	948.1662	1152.37317	824.72729	869.46826	1220.16589	778.31329	838.97992	1176.45825	843.01776	778.17279	1195.9032	641.68457	1395.20911	1550.12427	591.42029	1198.22388	1634.5022	594.11749	1075.90466	1645.47034	605.8363	955.9621	1661.17505	661.78143	815.1452	1628.08752	608.58514	818.21893	1668.22461	643.84967	741.7829	1670.69177	710.32837	946.5495	1281.78613	720.46021	960.12482	1503.81726	555.53485	984.52832	1317.6145	568.64862	988.04077	1485.64014	585.77643	642.95996	1244.45239	546.38037	483.45187	1270.0835	437.19336	248.99873	1291.73279	391.08817	83.76134	1347.03625	350.45255	78.26298	1394.41211	529.47009	37.86795	1344.30603	715.59485	635.55121	1571.35791	750.68646	518.4585	1540.33472	777.82422	256.05133	1550.42651	820.8446	73.31614	1511.82629	787.77795	45.0414	1466.76001	978.79242	59.06374	1503.45081	612.3327	1690.48669	1394.71619	NaN	NaN	NaN	NaN	NaN	NaN	NaN	NaN	NaN	NaN	NaN	NaN	NaN	NaN	NaN	NaN	NaN	NaN	NaN	NaN	NaN	NaN	NaN	NaN	NaN	NaN	NaN
361	3.6	721.31696	1656.56982	1338.18213	720.95288	1643.60205	1469.1189	589.85132	1597.85083	1336.37146	590.19263	1589.79773	1465.41736	589.90863	1444.38269	1389.29785	551.81671	1115.95874	1395.01184	697.3844	1364.19116	1391.68628	733.32013	1187.38281	1382.67358	511.65686	1273.63586	1463.26477	647.96735	1398.73389	1229.45959	662.25739	1195.59583	1159.21875	672.7793	1082.19751	1151.6864	744.09692	948.2572	1153.60315	830.57593	869.35364	1221.37842	784.1333	838.72198	1177.72913	848.75763	777.98621	1197.29956	648.86053	1394.72083	1551.58569	598.62189	1197.67053	1635.75342	601.27924	1075.29834	1646.53821	612.8584	955.29083	1662.00195	668.65619	814.4967	1628.6344	615.46216	817.54651	1668.8374	650.68201	741.08002	1671.14856	717.17133	946.26599	1282.10828	728.5307	959.76227	1504.15149	562.61493	984.40149	1318.92578	576.52557	988.24982	1487.05249	591.39685	642.95923	1245.03442	551.62	483.63937	1270.61401	439.75705	250.2993	1291.94849	391.91669	85.46149	1346.80164	351.31708	80.59515	1394.30261	529.64807	37.83935	1344.22144	722.8891	635.36804	1572.04858	757.47205	518.31219	1540.96472	782.32336	255.48289	1550.81299	822.27643	72.71224	1512.15979	788.45074	45.71825	1466.90771	979.85614	51.31343	1502.00146	618.89465	1690.38367	1396.85474	NaN	NaN	NaN	NaN	NaN	NaN	NaN	NaN	NaN	NaN	NaN	NaN	NaN	NaN	NaN	NaN	NaN	NaN	NaN	NaN	NaN	NaN	NaN	NaN	NaN	NaN	NaN
